<svg id="Layer_1" enable-background="new 0 0 512 512" height="512" viewBox="0 0 512 512" width="512" xmlns="http://www.w3.org/2000/svg"><g fill="#c69a85"><path d="m.123 0v512h256.821l-57.6-232.215-66.134-4.585-4.266-106.667-36.267-44.266-6.4-74.134z"/><path d="m311.344 455.21 16-119.131-45.867-16.079-16-77.867-55.467-55.467v-87.466s-74.667-23.467-81.477-24.862l-38.933 14.287 3.077 35.642 36.267 44.267 4.266 106.666 66.133 4.585 57.601 232.215h88.533z"/><path d="m511.877 0-91.733 19.2 11.733 185.6-73.6 24.533 30.933 183.467-43.733 99.2h166.4z"/></g><path d="m246.277 395.645c-27.733-45.955-23.467-122.578-28.738-133.245-5.272-10.667-54.461-24.533-54.461-24.533s0-24.533 0-33.067c0-8.533-2.133-22.4-19.2-53.333-9.436-17.103-15.571-49.854-19.172-75.724l-35.106 12.882 3.077 35.642 36.267 44.267 4.266 106.666 66.133 4.585 57.601 232.215h39.769c-6.858-31.418-31.783-85.446-50.436-116.355z" fill="#9f7766"/><path d="m265.477 242.133-55.467-55.467v-87.466s-24.882-7.82-47.228-14.7c6.12 32.629 18.407 90.976 30.374 105.367 16.854 20.267 39.254 34.607 39.254 34.607 36.863 19.944 33.144 18.034 33.067 17.659z" fill="#dfb7a4"/><path d="m311.344 455.21 16-119.131-39.326-13.786 3.059 13.786 20.267 23.387s-12.8 81.621-4.267 112.81c4.217 15.413 11.819 29.455 18.432 39.723h19.968z" fill="#dfb7a4"/><path d="m120.538 449.067c-7.339-82.133-21.461-71.555-21.461-71.555h-59.733l5.333-63.911s10.667-36.267 0-33.815c-10.667 2.45-39.467-217.653-39.467-217.653l-5.088 1.17v448.697h129.065c-2.411-11.646-5.784-30.867-8.649-62.933z" fill="#9f7766"/><path d="m77.744 158.933 51.404 14.694-.204-5.094-36.267-44.267-6.4-74.133-52.029-30.275c4.102 11.782 21.25 58.439 20.029 68.981-2.261 19.529 23.467 70.094 23.467 70.094z" fill="#e8d9d4"/><path d="m199.344 279.785-55.082-3.819c10.588 1.978 25.145 8.485 26.409 29.243 2.006 32.924 18.431 132.035 22.485 139.546s24.382 36.311 24.382 36.311 6.479 16.086 13.458 30.933h25.947z" fill="#dfb7a4"/><path d="m511.877 512v-512l-10.61 2.221-25.657 46.638v151.674s-11.733 127.057-33.067 118.462c-21.333-8.595-13.866 42.605-13.866 42.605l29.867 83.156s-36.07 38.696-60.499 67.244z" fill="#9f7766"/><path d="m420.144 19.2 4.402 69.639 15.854-73.879z" fill="#dfb7a4"/><path d="m358.277 229.333 30.933 183.467 17.067-3.2-19.2-164.281 44.8-40.519z" fill="#dfb7a4"/><path d="m121.885 414.655v-28.738c-3.221-10.491-16.061-11.048-32-8.406v42.406c0 6.883 2.913 9.212 15 25.601v66.482h32v-71.744c0-6.883-2.914-9.212-15-25.601z" fill="#845f52"/></svg>