<svg id="icons" enable-background="new 0 0 64 64" height="512" viewBox="0 0 64 64" width="512" xmlns="http://www.w3.org/2000/svg"><g><g><g><path d="m63 9.5-4 44h-20l9-16.5z" fill="#965353"/></g><g><path d="m63 9.5-15 27.5-9-18.5v-9z" fill="#844747"/></g><g><path d="m34 9.5v10l-6 16v6h-7l3 12h-7v-19-18.99z" fill="#773e3e"/></g><g><path d="m32 41.5v12h-8l-3-12h7z" fill="#965353"/></g><g><path d="m17 15.51v18.99l-9.99-22z" fill="#844747"/></g><g><path d="m17 34.5v19h-16v-33.67l6.01-7.33z" fill="#965353"/></g></g><g><g><path d="m63 54.5h-62c-.553 0-1-.447-1-1s.447-1 1-1h62c.553 0 1 .447 1 1s-.447 1-1 1z" fill="#a0d468"/></g></g></g></svg>