<svg id="Layer_1" enable-background="new 0 0 512 512" height="512" viewBox="0 0 512 512" width="512" xmlns="http://www.w3.org/2000/svg"><g><path d="m497 512h-80.333c-5.682 0-10.875-3.21-13.416-8.292l-72.301-144.6c-2.112-4.223-2.112-9.193 0-13.416l40.167-80.334c2.54-5.082 7.734-8.292 13.416-8.292s10.876 3.21 13.416 8.292l112.467 224.934c2.325 4.649 2.077 10.172-.656 14.594-2.734 4.423-7.562 7.114-12.76 7.114z" fill="#ff823c"/><path d="m403.251 503.708c2.541 5.082 7.734 8.292 13.416 8.292h80.333c5.198 0 10.026-2.691 12.76-7.114 2.733-4.422 2.981-9.944.656-14.594l-112.467-224.934c-2.54-5.082-7.734-8.292-13.416-8.292v209.207z" fill="#d26432"/><path d="m416.667 512h-176.734c-5.682 0-10.875-3.21-13.417-8.292l-72.3-144.6c-2.111-4.223-2.111-9.193 0-13.416l88.367-176.733c2.541-5.082 7.735-8.292 13.417-8.292s10.876 3.21 13.416 8.292l160.667 321.333c2.325 4.649 2.077 10.172-.656 14.594-2.734 4.423-7.562 7.114-12.76 7.114z" fill="#d26432"/><path d="m416.667 512c5.198 0 10.026-2.691 12.76-7.114 2.733-4.422 2.981-9.944.656-14.594l-160.667-321.333c-2.54-5.082-7.734-8.292-13.416-8.292v351.333z" fill="#a54628"/><path d="m239.933 512h-224.933c-5.199 0-10.027-2.691-12.76-7.114-2.733-4.422-2.981-9.944-.657-14.594l112.467-224.934c2.541-5.082 7.735-8.292 13.417-8.292s10.875 3.21 13.417 8.292l112.466 224.934c2.325 4.649 2.076 10.172-.657 14.594-2.733 4.423-7.561 7.114-12.76 7.114z" fill="#a54628"/><path d="m127.467 142.467c-19.037 0-36.983-7.552-50.198-20.7-6.931 3.03-14.463 4.634-22.102 4.634-30.419-.001-55.167-24.749-55.167-55.168s24.748-55.167 55.167-55.167c7.641 0 15.173 1.602 22.101 4.628 13.212-13.144 31.159-20.694 50.199-20.694s36.986 7.55 50.2 20.694c6.927-3.026 14.46-4.628 22.1-4.628 30.419 0 55.167 24.748 55.167 55.167s-24.748 55.167-55.167 55.167c-7.638 0-15.172-1.604-22.102-4.634-13.215 13.149-31.162 20.701-50.198 20.701z" fill="#f5f5fa"/><path d="m127.467 142.467v-142.467c19.04 0 36.986 7.55 50.2 20.694 6.927-3.026 14.46-4.628 22.1-4.628 30.419 0 55.167 24.748 55.167 55.167s-24.748 55.167-55.167 55.167c-7.638 0-15.172-1.604-22.102-4.634-13.215 13.149-31.162 20.701-50.198 20.701z" fill="#e1e1eb"/><path d="m239.933 512c5.199 0 10.027-2.691 12.76-7.114 2.733-4.422 2.981-9.944.657-14.594l-112.467-224.934c-2.541-5.082-7.735-8.292-13.417-8.292v254.934z" fill="#78281e"/></g></svg>